<svg width="16" height="16" viewBox="0 0 16 16" fill="none" xmlns="http://www.w3.org/2000/svg">
<rect width="16" height="16" rx="2" fill="black"/>
<path d="M6.54591 7H6.69431C7.26579 7.02882 7.71413 7.17805 7.99829 7.48576C8.28666 7.17702 8.73501 7.02676 9.30964 7H9.45172C10.2322 7.05168 10.7526 7.40671 11.2725 7.76139C11.6016 7.9859 11.9304 8.21026 12.3249 8.35746C12.4831 8.42791 12.6553 8.46306 12.829 8.46038C13.09 8.43259 13.2563 8.17427 13.2226 7.88611C13.1869 7.57736 12.8774 7.30875 12.5322 7.45695C12.4868 7.47747 12.4452 7.5053 12.4091 7.53928C12.4056 7.54241 12.4021 7.5462 12.3984 7.55038C12.3962 7.55285 12.394 7.55546 12.3917 7.55815C12.3687 7.58521 12.3391 7.61993 12.286 7.60206C12.2262 7.55339 12.2795 7.48353 12.3131 7.43954L12.3186 7.43225C12.3809 7.32388 12.4752 7.23642 12.5892 7.18134C12.7032 7.12625 12.8315 7.10609 12.9574 7.1235C13.55 7.16467 14.0804 7.67307 13.9899 8.44288C13.7878 9.58834 12.7164 9.89708 11.4461 10H11.0325C9.92391 9.95588 8.86052 9.5583 8.00461 8.86792C7.14201 9.55597 6.07516 9.95305 4.96303 10H4.55679C3.27701 9.88988 2.1951 9.58833 2.00671 8.40892C1.93514 7.56912 2.44663 7.15643 3.04021 7.11424C3.16715 7.0966 3.29658 7.11659 3.41177 7.17162C3.52697 7.22666 3.62264 7.31422 3.68641 7.42298C3.6889 7.42698 3.69157 7.43116 3.69434 7.4355C3.72437 7.48255 3.76626 7.54818 3.71904 7.6C3.66622 7.60931 3.63548 7.57752 3.61101 7.5522C3.60576 7.54677 3.60074 7.54159 3.5959 7.53722C3.55743 7.49801 3.51139 7.46664 3.46045 7.44491C3.40951 7.42318 3.35468 7.41153 3.29912 7.41063C2.89287 7.39623 2.65923 7.83773 2.8213 8.19382C2.85291 8.26303 2.90209 8.32319 2.96417 8.36858C3.02624 8.41397 3.09916 8.44309 3.17598 8.45317C3.34958 8.45422 3.52143 8.41914 3.6801 8.35026C3.82151 8.29698 3.95781 8.23155 4.0874 8.15472C4.28822 8.0409 4.4777 7.91466 4.66709 7.78848C5.20715 7.42866 5.74646 7.06934 6.54591 7Z" fill="white"/>
</svg>
