<svg width="16" height="13" viewBox="0 0 16 13" fill="none" xmlns="http://www.w3.org/2000/svg">
<path fill-rule="evenodd" clip-rule="evenodd" d="M0.400498 0.102987C0.205684 0.408698 0.0722849 0.819381 0.0224031 1.26701C-0.00418522 1.50562 0.00421225 1.95444 0.0391981 2.16472C0.115314 2.62228 0.277109 3.04286 0.526335 3.43104C0.741547 3.76623 1.0647 4.1083 1.39485 4.35041C1.43206 4.3777 1.45522 4.4 1.44633 4.39998C1.41225 4.39992 1.06898 4.34108 0.932494 4.31191C0.627529 4.24672 0.375019 4.16788 0.128196 4.06077C0.0602263 4.03127 0.00287368 4.00909 0.00074569 4.01147C-0.00138229 4.01384 0.00120332 4.10622 0.00647751 4.21677C0.0222315 4.54702 0.0629264 4.77623 0.159692 5.07982C0.31031 5.55238 0.549834 5.96107 0.886296 6.3196C1.32328 6.78523 1.86972 7.10445 2.46461 7.24162C2.53015 7.25673 2.57893 7.27219 2.57301 7.27597C2.54767 7.29216 2.16912 7.36898 2.03462 7.38524C1.76846 7.41742 1.38796 7.40616 1.21395 7.36097C1.17682 7.35133 1.14435 7.34562 1.14179 7.34827C1.13287 7.35749 1.22177 7.58697 1.28436 7.71627C1.39809 7.95124 1.57742 8.22628 1.77773 8.47292C1.89067 8.61199 2.20057 8.93249 2.34543 9.06005C2.89335 9.54248 3.5211 9.90944 4.09153 10.0807C4.32456 10.1507 4.5875 10.1981 4.79757 10.208L4.85859 10.2109L4.71748 10.3183C4.00218 10.8627 3.49699 11.1699 2.94035 11.3988C2.47266 11.5912 1.91871 11.7274 1.37868 11.7829C1.11599 11.8099 0.979859 11.8162 0.522331 11.823L0.16811 11.8281C0.120995 11.8288 0.104346 11.8909 0.144785 11.9151V11.9151C0.533909 12.1478 0.915882 12.3259 1.36095 12.4823C2.16531 12.765 3.00053 12.9179 4.10731 12.9851C4.4285 13.0046 5.44597 13.0051 5.69758 12.9858C6.59732 12.9169 7.32184 12.7767 8.09487 12.522C9.40059 12.0917 10.5827 11.3579 11.5698 10.365C12.8958 9.03099 13.812 7.28131 14.1747 5.39057C14.2922 4.77841 14.3407 4.26119 14.3413 3.61381L14.3417 3.27095L14.4594 3.1852C14.8832 2.87661 15.3396 2.41985 15.7441 1.89952C15.8428 1.77249 16 1.55585 16 1.54679C16 1.54376 15.9112 1.57855 15.8026 1.62411C15.3946 1.79539 14.8944 1.94885 14.5385 2.01195C14.3848 2.0392 14.1656 2.07021 14.1606 2.06541C14.1588 2.06374 14.2232 2.01685 14.3036 1.96121C14.5173 1.81329 14.6227 1.72267 14.8277 1.51026C15.0984 1.22977 15.2956 0.950199 15.4619 0.610853C15.5442 0.44309 15.6142 0.273907 15.6013 0.273907C15.5969 0.273907 15.5831 0.281143 15.5707 0.289986C15.5582 0.29883 15.4646 0.352079 15.3625 0.408319C14.8115 0.711913 14.2354 0.927878 13.6691 1.04311L13.5406 1.06927L13.4596 0.990242C13.0821 0.622262 12.5452 0.303299 12.047 0.151046C11.134 -0.128004 10.1724 -0.0082877 9.36698 0.484706C8.59056 0.959929 8.03547 1.75546 7.86637 2.63533C7.81357 2.91005 7.80527 3.03076 7.81157 3.43133C7.81699 3.77595 7.82452 3.85927 7.86096 3.97792C7.86823 4.00156 7.86558 4.0017 7.56662 3.99414C6.56033 3.96873 5.55072 3.74467 4.59926 3.33565C3.83016 3.005 3.08668 2.54629 2.37975 1.96624C2.02399 1.67433 1.77748 1.44411 1.37227 1.02537C1.01903 0.660355 0.735358 0.340918 0.501932 0.0453281L0.466134 0L0.400498 0.102987Z" fill="#F3F3F3"/>
</svg>
